# xmcd
#
# Track frame offsets: 
#        150
#        12388
#        26107
#        43136
#        53473
#        69128
#        81400
#        96173
#        121738
#        136120
#        147438
#        164226
#        183828
#        199587
#        219737
#
# Disc length: 3087 seconds
#
# Revision: 1
# Processed by: cddbd v1.5.2PL0 Copyright (c) Steve Scherf et al.
# Submitted via: ExactAudioCopy v1.1
#
DISCID=d30c0d0f
DTITLE=The Sisters Love - With Love
DYEAR=2010
DGENRE=R&B
TTITLE0=Communication
TTITLE1=Mr Fix-It Man
TTITLE2=You've Got My Mind
TTITLE3=Fast Mack
TTITLE4=Sweet Inspiration
TTITLE5=Just A Little Misunderstanding
TTITLE6=I'm Learning To Trust My Man
TTITLE7=Do What You Gotta Do
TTITLE8=You've Got To Make The Choice
TTITLE9=Turn On Your Lovelight
TTITLE10=Giving Up
TTITLE11=Give Me Your Love
TTITLE12=My Love Is Yours ('Til The End Of Time)
TTITLE13=I Ain't That Easy To Lose
TTITLE14=(I Could Never Make) A Better Man Than You
EXTD=
EXTT0=
EXTT1=
EXTT2=
EXTT3=
EXTT4=
EXTT5=
EXTT6=
EXTT7=
EXTT8=
EXTT9=
EXTT10=
EXTT11=
EXTT12=
EXTT13=
EXTT14=
PLAYORDER=
